<mxfile host="65bd71144e">
    <diagram id="SdNTiUcUs7ugRkJbEyxi" name="Page-1">
        <mxGraphModel dx="772" dy="485" grid="1" gridSize="10" guides="1" tooltips="1" connect="1" arrows="1" fold="1" page="1" pageScale="1" pageWidth="827" pageHeight="1169" math="0" shadow="0">
            <root>
                <mxCell id="0"/>
                <mxCell id="1" parent="0"/>
                <mxCell id="2" value="Actor" style="shape=umlActor;verticalLabelPosition=bottom;verticalAlign=top;html=1;outlineConnect=0;fillColor=none;" vertex="1" parent="1">
                    <mxGeometry x="280" y="180" width="30" height="60" as="geometry"/>
                </mxCell>
                <mxCell id="4" value="Document" style="shape=document;whiteSpace=wrap;html=1;boundedLbl=1;verticalAlign=top;labelPosition=center;verticalLabelPosition=bottom;align=center;fillColor=none;" vertex="1" parent="1">
                    <mxGeometry x="380" y="180" width="60" height="70" as="geometry"/>
                </mxCell>
                <mxCell id="5" value="Diagram1 heading" style="shape=umlFrame;whiteSpace=wrap;html=1;width=120;height=30;boundedLbl=1;verticalAlign=middle;align=left;spacingLeft=5;fillColor=none;" vertex="1" parent="1">
                    <mxGeometry x="200" y="130" width="340" height="180" as="geometry"/>
                </mxCell>
            </root>
        </mxGraphModel>
    </diagram>
</mxfile>
